<svg width="454" height="246" viewBox="0 0 454 246" fill="none" xmlns="http://www.w3.org/2000/svg">
<path d="M452 122.956C448.932 192.505 361.454 235.017 264.5 242.901C141.005 252.943 2 212.962 2 122.956C2 32.9514 141.005 -7.03011 264.5 3.01209C361.451 10.8958 448.928 53.4113 452 122.956ZM452 122.956H437M437 122.956C412.625 122.956 410.75 115.365 399.5 96.3878C355.795 17.5734 118.25 26.4318 118.25 122.956C118.25 219.48 355.792 228.337 399.5 149.525C410.75 130.547 412.625 122.956 437 122.956Z" stroke="url(#paint0_radial)" stroke-width="3" stroke-linejoin="round"/>
<defs>
<radialGradient id="paint0_radial" cx="0" cy="0" r="1" gradientUnits="userSpaceOnUse" gradientTransform="translate(279.5 122.956) rotate(180) scale(288.75 155.869)">
<stop offset="0.424799" stop-color="#F9DCDC"/>
<stop offset="0.829677" stop-color="#FDB7B7" stop-opacity="0.841406"/>
<stop offset="1"/>
</radialGradient>
</defs>
</svg>
