<svg width="103" height="103" viewBox="0 0 103 103" fill="none" xmlns="http://www.w3.org/2000/svg">
<path d="M69.6723 103H16.027C9.51637 103 4.22461 97.7083 4.22461 91.1977V33.2602C4.22461 26.7496 9.51637 21.4586 16.027 21.4586H18.1723C19.949 21.4586 21.391 22.9006 21.391 24.6774C21.391 26.4541 19.949 27.8961 18.1723 27.8961H16.027C13.0699 27.8961 10.6621 30.3031 10.6621 33.2602V91.1977C10.6621 94.1547 13.0699 96.5625 16.027 96.5625H69.6723C72.6293 96.5625 75.0371 94.1547 75.0371 91.1977V89.0524C75.0371 87.2756 76.4791 85.8336 78.2559 85.8336C80.0326 85.8336 81.4746 87.2756 81.4746 89.0524V91.1977C81.4746 97.7083 76.1828 103 69.6723 103V103Z" fill="white"/>
<path d="M86.8395 77.25H41.777C35.2664 77.25 29.9746 71.9582 29.9746 65.4477V11.8023C29.9746 5.29176 35.2664 0 41.777 0H86.8395C93.35 0 98.641 5.29176 98.641 11.8023V65.4477C98.641 71.9582 93.35 77.25 86.8395 77.25ZM41.777 6.4375C38.8199 6.4375 36.4121 8.84528 36.4121 11.8023V65.4477C36.4121 68.4047 38.8199 70.8125 41.777 70.8125H86.8395C89.7965 70.8125 92.2035 68.4047 92.2035 65.4477V11.8023C92.2035 8.84528 89.7965 6.4375 86.8395 6.4375H41.777Z" fill="white"/>
</svg>
