<svg width="18" height="18" viewBox="0 0 18 18" fill="none" xmlns="http://www.w3.org/2000/svg">
<path d="M1.53033 0.46967C1.23744 0.176777 0.762563 0.176777 0.46967 0.46967C0.176777 0.762563 0.176777 1.23744 0.46967 1.53033L1.53033 0.46967ZM16.4697 17.5303C16.7626 17.8232 17.2374 17.8232 17.5303 17.5303C17.8232 17.2374 17.8232 16.7626 17.5303 16.4697L16.4697 17.5303ZM0.46967 16.4697C0.176777 16.7626 0.176777 17.2374 0.46967 17.5303C0.762563 17.8232 1.23744 17.8232 1.53033 17.5303L0.46967 16.4697ZM17.5303 1.53033C17.8232 1.23744 17.8232 0.762563 17.5303 0.46967C17.2374 0.176777 16.7626 0.176777 16.4697 0.46967L17.5303 1.53033ZM7.17996 10.82L6.64963 10.2897L6.64963 10.2897L7.17996 10.82ZM9.803 7.13634C9.51011 7.42923 9.51011 7.9041 9.803 8.197C10.0959 8.48989 10.5708 8.48989 10.8637 8.197L9.803 7.13634ZM8.197 10.8637C8.48989 10.5708 8.48989 10.0959 8.197 9.803C7.9041 9.51011 7.42923 9.51011 7.13634 9.803L8.197 10.8637ZM0.46967 1.53033L16.4697 17.5303L17.5303 16.4697L1.53033 0.46967L0.46967 1.53033ZM1.53033 17.5303L7.71029 11.3504L6.64963 10.2897L0.46967 16.4697L1.53033 17.5303ZM10.8637 8.197L17.5303 1.53033L16.4697 0.46967L9.803 7.13634L10.8637 8.197ZM7.71029 11.3504L8.197 10.8637L7.13634 9.803L6.64963 10.2897L7.71029 11.3504Z" fill="white"/>
</svg>
