<svg width="47" height="47" viewBox="0 0 47 47" fill="none" xmlns="http://www.w3.org/2000/svg">
<g filter="url(#filter0_i)">
<path d="M45.3333 23.4306C45.3333 35.8186 35.409 45.8611 23.1667 45.8611C10.9244 45.8611 1 35.8186 1 23.4306C1 11.0425 10.9244 1 23.1667 1C35.409 1 45.3333 11.0425 45.3333 23.4306Z" fill="url(#paint0_radial)"/>
</g>
<path d="M45.3333 23.4306C45.3333 35.8186 35.409 45.8611 23.1667 45.8611C10.9244 45.8611 1 35.8186 1 23.4306C1 11.0425 10.9244 1 23.1667 1C35.409 1 45.3333 11.0425 45.3333 23.4306Z" stroke="url(#paint1_radial)" stroke-width="2" stroke-linejoin="round"/>
<defs>
<filter id="filter0_i" x="0" y="0" width="50.3333" height="50.8611" filterUnits="userSpaceOnUse" color-interpolation-filters="sRGB">
<feFlood flood-opacity="0" result="BackgroundImageFix"/>
<feBlend mode="normal" in="SourceGraphic" in2="BackgroundImageFix" result="shape"/>
<feColorMatrix in="SourceAlpha" type="matrix" values="0 0 0 0 0 0 0 0 0 0 0 0 0 0 0 0 0 0 127 0" result="hardAlpha"/>
<feOffset dx="4" dy="4"/>
<feGaussianBlur stdDeviation="2"/>
<feComposite in2="hardAlpha" operator="arithmetic" k2="-1" k3="1"/>
<feColorMatrix type="matrix" values="0 0 0 0 0 0 0 0 0 0 0 0 0 0 0 0 0 0 0.67 0"/>
<feBlend mode="normal" in2="shape" result="effect1_innerShadow"/>
</filter>
<radialGradient id="paint0_radial" cx="0" cy="0" r="1" gradientUnits="userSpaceOnUse" gradientTransform="translate(22.7941 23.4128) rotate(90) scale(22.042 21.7941)">
<stop stop-color="#F9DCDC"/>
<stop offset="0.9999" stop-color="#F9DCDC"/>
<stop offset="1" stop-color="white" stop-opacity="0"/>
</radialGradient>
<radialGradient id="paint1_radial" cx="0" cy="0" r="1" gradientUnits="userSpaceOnUse" gradientTransform="translate(32.0333 25.6735) rotate(180) scale(170.683 92.1148)">
<stop offset="0.424799" stop-color="#F9DCDC"/>
<stop offset="0.829677" stop-color="#FDB7B7" stop-opacity="0.841406"/>
<stop offset="1"/>
</radialGradient>
</defs>
</svg>
