<svg width="22" height="21" viewBox="0 0 22 21" fill="none" xmlns="http://www.w3.org/2000/svg">
<path d="M11.0153 0.288331C5.21919 0.285987 0.524658 4.97817 0.524658 10.7696C0.524658 15.3493 3.46138 19.2422 7.55122 20.6719C8.102 20.8102 8.01763 20.4188 8.01763 20.1516V18.3352C4.83716 18.7079 4.70825 16.6032 4.49497 16.2516C4.06372 15.5157 3.04419 15.3282 3.34888 14.9766C4.0731 14.604 4.81138 15.0704 5.66685 16.3336C6.2856 17.25 7.49263 17.0954 8.10435 16.943C8.23794 16.3922 8.52388 15.9 8.91763 15.518C5.62232 14.9274 4.24888 12.9165 4.24888 10.5258C4.24888 9.36567 4.63091 8.29927 5.38091 7.43911C4.90279 6.02114 5.42544 4.80708 5.49575 4.62661C6.85747 4.50474 8.2731 5.60161 8.38326 5.68833C9.15669 5.47974 10.0403 5.36958 11.0294 5.36958C12.0231 5.36958 12.909 5.48442 13.6895 5.69536C13.9544 5.4938 15.2669 4.55161 16.5325 4.66646C16.6004 4.84692 17.1114 6.03286 16.6614 7.43208C17.4208 8.29458 17.8075 9.37036 17.8075 10.5329C17.8075 12.9282 16.4247 14.9415 13.12 15.5227C13.403 15.8011 13.6278 16.133 13.7811 16.4992C13.9344 16.8654 14.0132 17.2585 14.0129 17.6555V20.2922C14.0317 20.5032 14.0129 20.7118 14.3645 20.7118C18.5153 19.3125 21.5036 15.3915 21.5036 10.7719C21.5036 4.97817 16.8067 0.288331 11.0153 0.288331Z" fill="white"/>
</svg>
