<svg width="12" height="11" viewBox="0 0 12 11" fill="none" xmlns="http://www.w3.org/2000/svg">
<path d="M1.44372 0C2.23944 0 2.88393 0.593895 2.88393 1.32407C2.88393 2.05424 2.23944 2.6487 1.44372 2.6487C0.644482 2.6487 0 2.05424 0 1.32407C0 0.593895 0.644482 0 1.44372 0ZM0.197831 3.65215H2.68786V11H0.197831V3.65215Z" fill="white"/>
<path d="M4.24767 3.65208H6.63219V4.65674H6.66472C6.99796 4.07835 7.80863 3.46935 9.01935 3.46935C11.5366 3.46935 12 4.9906 12 6.96972V10.9999H9.51613V7.42693C9.51613 6.5747 9.49853 5.47844 8.22362 5.47844C6.93025 5.47844 6.73242 6.40741 6.73242 7.36481V10.9999H4.24767V3.65208Z" fill="white"/>
</svg>
