<svg width="181" height="23" viewBox="0 0 181 23" fill="none" xmlns="http://www.w3.org/2000/svg">
<path d="M165.652 11.8039C165.652 6.55949 169.925 4.77914 172.897 4.77914C176.268 4.77914 177.905 6.69607 177.905 6.69607L178.044 4.96296H180.5V18.9341H178.039L177.905 17.0889C177.905 17.0889 176.222 18.9385 172.866 18.9385C169.496 18.9385 165.651 16.9985 165.651 11.8039H165.652ZM168.386 11.8321C168.386 15.6304 171.54 16.5767 173.037 16.5767C175.892 16.5767 177.907 14.9763 177.907 11.7777C177.907 8.57741 175.616 7.11104 173.009 7.11104C171.531 7.11104 168.386 7.97471 168.386 11.8327V11.8321ZM160.948 4.96157H163.636V18.9072H160.947L160.948 4.96157ZM126.079 7.22426H123.371V4.97653H126.079V1.64225H128.705V4.97653H133.023V7.22426H128.705V13.9934C128.705 15.6865 129.18 16.5745 131.367 16.5745C132.205 16.5745 133.145 16.3355 133.145 16.3355V18.6784C132.233 18.8009 131.569 18.8744 130.534 18.8744C126.4 18.8744 126.079 15.9203 126.079 14.3016V7.22353V7.22426Z" fill="white"/>
<path d="M162.292 6.91414e-05C163.263 6.91414e-05 164.05 0.780635 164.05 1.74331C164.05 2.70637 163.263 3.48694 162.292 3.48694C161.32 3.48694 160.534 2.70637 160.534 1.74331C160.534 0.780635 161.32 6.91414e-05 162.292 6.91414e-05Z" fill="white"/>
<path d="M117.617 10.6013C114.911 10.1216 112.25 9.78683 112.25 8.53492C112.25 7.71975 113.066 7.00357 115.434 7.00357C117.195 7.00357 119.226 7.40649 119.776 8.64311L122.271 7.60461C121.316 5.70256 118.492 4.78853 115.246 4.78853C112.41 4.78853 109.364 5.85409 109.364 8.70134C109.364 11.167 111.629 11.934 115.361 12.6312C117.856 13.0975 120.155 13.3328 120.155 14.6659C120.155 15.5081 119.024 16.5862 116.195 16.5862C114.185 16.5862 112.158 16.1673 111.539 14.7483L109.118 15.7558C110.109 17.947 112.742 19.0822 115.793 19.0822C121.882 19.0822 123.059 16.2082 123.059 14.5785C123.059 11.8613 120.334 11.0839 117.616 10.602L117.617 10.6013ZM145.59 10.6596C145.59 8.76328 143.664 7.18316 141.299 7.18316C138.769 7.18316 136.675 8.73198 136.507 10.6596H145.59H145.59ZM133.67 11.8575C133.67 7.49542 136.919 4.6939 141.263 4.6939C145.578 4.6939 148.542 7.81953 148.542 11.6164C148.542 11.6164 148.542 12.2094 148.486 12.7478L136.465 12.7995C136.58 14.9529 139.088 16.5745 141.676 16.5745C144.464 16.5745 146.117 14.8663 146.117 14.8663L148.041 16.5425C146.089 18.4002 143.96 18.9654 141.678 18.9654C136.938 18.9654 133.67 16.2206 133.67 11.9662V11.859V11.8575ZM158.986 7.35951V4.99915C156.331 4.75729 154.468 5.38705 153.017 6.89213L152.875 4.96785H150.325V18.9247H153.015V11.693C153.015 9.67725 154.654 7.11837 158.986 7.35845V7.35951Z" fill="white"/>
<path d="M23.37 16.5761C21.1595 16.5761 18.2493 15.629 18.2493 11.8312C18.2493 7.97312 21.4769 7.18859 23.37 7.18859C25.2637 7.18859 28.4905 7.97312 28.4905 11.8312C28.4888 15.6304 25.5789 16.5761 23.3693 16.5761H23.37ZM23.37 4.77986C19.7735 4.77986 15.5154 6.56101 15.5154 11.8047C15.5154 16.9985 19.3478 19.0165 23.37 19.0165C27.3951 19.0165 31.2229 16.9985 31.2229 11.8047C31.2229 6.56035 26.9682 4.77986 23.3707 4.77986H23.37ZM8.99773 10.6013C6.29072 10.1215 3.63139 9.78677 3.63139 8.53486C3.63139 7.71968 4.44355 7.0035 6.81346 7.0035C8.57415 7.0035 10.6053 7.40643 11.1564 8.64305L13.6518 7.60454C12.6963 5.7025 9.87212 4.78846 6.62758 4.78846C3.7915 4.78846 0.744269 5.85403 0.744269 8.70128C0.744269 11.167 3.00904 11.9339 6.74359 12.6312C9.23545 13.0975 11.5377 13.3327 11.5377 14.6658C11.5377 15.508 10.4055 16.5861 7.57789 16.5861C5.56625 16.5861 3.53806 16.1673 2.91871 14.7482L0.5 15.7557C1.48998 17.9469 4.12397 19.0821 7.17308 19.0821C13.2635 19.0821 14.441 16.2081 14.441 14.5785C14.441 11.8612 11.7159 11.0839 8.99699 10.6019L8.99773 10.6013ZM57.8176 7.35944V4.99909C55.1635 4.75723 53.299 5.38699 51.8465 6.89207L51.7087 4.96779H49.1582V18.9247H51.8465V11.6929C51.8465 9.67719 53.4879 7.11831 57.8169 7.35838L57.8176 7.35944ZM57.6222 11.8039C57.6222 6.55949 61.8957 4.77913 64.8672 4.77913C68.2377 4.77913 69.8734 6.69607 69.8734 6.69607L70.0123 4.96296H72.4695V18.9341H70.0189L69.8734 17.0889C69.8734 17.0889 68.191 18.9385 64.8357 18.9385C61.4666 18.9385 57.6207 16.9985 57.6207 11.8039H57.6222ZM60.3531 11.8321C60.3531 15.6304 63.5095 16.5767 65.0058 16.5767C67.8613 16.5767 69.8734 14.9763 69.8734 11.7777C69.8734 8.57741 67.5863 7.11103 64.9779 7.11103C63.5002 7.11103 60.3538 7.97471 60.3538 11.8327L60.3531 11.8321ZM40.2923 18.9377C36.9244 18.9377 35.2555 16.815 35.2555 16.815V22.6895H32.6601V4.96382H35.1177L35.257 6.69686C35.257 6.69686 36.8921 4.77986 40.2644 4.77986C43.2342 4.77986 47.5098 6.28051 47.5098 11.8047C47.5098 17.3285 43.6607 18.9377 40.2931 18.9377H40.2923ZM40.1528 7.11024C37.5441 7.11024 35.2548 8.57668 35.2548 11.7777C35.2548 14.9776 37.2682 16.5761 40.1249 16.5761C41.6189 16.5761 44.7757 15.9742 44.7757 11.8312C44.7757 7.68759 41.6281 7.10918 40.1519 7.10918L40.1528 7.11024Z" fill="white"/>
<path d="M98.379 18.4788C98.2302 18.5757 98.0507 18.688 97.8878 18.7805L97.8364 18.8103L97.8865 18.8155C101.099 19.6911 104.279 19.6585 104.891 17.6695C105.681 15.103 100.57 12.3508 98.1574 11.0378C97.6409 10.7573 97.416 10.9317 97.7457 11.3087C99.2693 13.0487 101.438 16.4698 98.3777 18.4804L98.379 18.4788Z" fill="#E88623"/>
<path d="M97.8397 18.8067C97.8397 18.8067 93.7948 21.3287 86.6539 21.3287C83.8876 21.3287 81.5592 20.9092 80.5748 19.9489C79.5364 18.9378 78.9751 17.2316 78.9751 15.6669C78.9751 14.3236 79.5377 13.1951 80.7096 13.1951C83.7188 13.1951 93.0974 17.9245 97.8404 18.8081L97.8397 18.8067Z" fill="#CC2447"/>
<path d="M84.3569 4.18786C84.505 4.09092 84.6859 3.97915 84.848 3.88651L84.8981 3.85667L84.848 3.85091C81.636 2.97671 78.4533 3.00947 77.8426 4.99761C77.0525 7.56376 82.1645 10.3163 84.5764 11.6294C85.095 11.9085 85.3179 11.7337 84.9895 11.3584C83.4659 9.61734 81.2956 6.19631 84.3582 4.1864L84.3569 4.18786Z" fill="#E88623"/>
<path d="M84.8948 3.85934C84.8948 3.85934 88.9424 1.33772 96.0826 1.33772C98.8482 1.33772 101.177 1.75758 102.162 2.7178C103.199 3.73077 103.761 5.43331 103.761 7.00138C103.761 8.34401 103.199 9.47278 102.027 9.47278C99.0177 9.47278 89.6405 4.74313 84.8954 3.85934H84.8948Z" fill="#CC2447"/>
</svg>
