<svg width="40" height="22" viewBox="0 0 40 22" fill="none" xmlns="http://www.w3.org/2000/svg">
<path d="M37.7333 11.1562C35.675 11.1562 35.5167 11.625 34.5667 13.1875C30.8757 19.6764 10.8167 18.9472 10.8167 11C10.8167 3.05273 30.876 2.32338 34.5667 8.8125C35.5167 10.375 35.675 10.8437 37.7333 10.8437H38.7782L37.7333 11.1562ZM37.7333 11.1562L38.3032 11.146L38.7782 11.1562M1 11C1 18.4105 12.7382 21.7023 23.1667 20.8755C31.3539 20.2264 38.7409 16.7262 39 11C38.7406 5.27406 31.3537 1.77359 23.1667 1.12449C12.7382 0.297671 1 3.58951 1 11Z" stroke="url(#paint0_radial)" stroke-width="0.5" stroke-linejoin="round"/>
<defs>
<radialGradient id="paint0_radial" cx="0" cy="0" r="1" gradientUnits="userSpaceOnUse" gradientTransform="translate(24.4333 11) rotate(180) scale(24.3833 12.8333)">
<stop offset="0.424799" stop-color="#F9DCDC"/>
<stop offset="0.829677" stop-color="#FDB7B7" stop-opacity="0.841406"/>
<stop offset="1"/>
</radialGradient>
</defs>
</svg>
