<svg width="22" height="17" viewBox="0 0 22 17" fill="none" xmlns="http://www.w3.org/2000/svg">
<path d="M20.4413 0.25H0.941284C0.52644 0.25 0.191284 0.585156 0.191284 1V16C0.191284 16.4148 0.52644 16.75 0.941284 16.75H20.4413C20.8561 16.75 21.1913 16.4148 21.1913 16V1C21.1913 0.585156 20.8561 0.25 20.4413 0.25ZM19.5038 2.84687V15.0625H1.87878V2.84687L1.23191 2.34297L2.153 1.15938L3.15613 1.93984H18.2288L19.2319 1.15938L20.153 2.34297L19.5038 2.84687ZM18.2288 1.93984L10.6913 7.79687L3.15378 1.9375L2.15066 1.15703L1.22957 2.34062L1.87644 2.84453L9.88269 9.06953C10.1129 9.24841 10.3962 9.34551 10.6878 9.34551C10.9793 9.34551 11.2626 9.24841 11.4928 9.06953L19.5038 2.84687L20.153 2.34297L19.2319 1.15938L18.2288 1.93984Z" fill="white"/>
</svg>
