<svg width="25" height="25" viewBox="0 0 25 25" fill="none" xmlns="http://www.w3.org/2000/svg">
<path d="M8.24496 3.94565L14.5499 10.2506L20.8549 16.5556C23.7591 19.4598 19.2931 23.9257 16.389 21.0215L3.77902 8.41158C0.869037 5.5016 5.33498 1.03565 8.24496 3.94565Z" fill="white"/>
<path d="M15.4913 10.0098L15.4913 3.58651C15.4913 -0.528835 9.17548 -0.528836 9.17548 3.5865V3.69402L15.4913 10.0098Z" fill="white"/>
<path d="M9.17548 14.9902L12.3334 18.1481L15.4913 21.306V21.4197C15.4913 25.5268 9.17548 25.5268 9.17548 21.4197L9.17548 14.9902Z" fill="white"/>
<path d="M21.2469 15.6579H21.1394L17.9753 12.4938L21.127 9.34211H21.2469C25.3622 9.34211 25.3622 15.6579 21.2469 15.6579Z" fill="white"/>
<path d="M3.52739 9.34211H3.41372C-0.693406 9.34211 -0.693407 15.6579 3.41371 15.6579H3.52901L6.68609 12.5008L3.52739 9.34211Z" fill="white"/>
<path d="M17.3718 11.8903L16.3334 10.8519L16.3334 3.99688L16.3846 3.94565C19.2946 1.03566 23.7605 5.50161 20.8505 8.41159L19.1112 10.151L17.3718 11.8903Z" fill="white"/>
<path d="M7.25777 13.0725L3.77466 16.5556C0.870487 19.4598 5.33643 23.9257 8.24059 21.0215L8.33337 20.9287L8.33337 17.5384L8.33338 14.1481L7.25777 13.0725Z" fill="white"/>
</svg>
