<svg width="18" height="15" viewBox="0 0 18 15" fill="none" xmlns="http://www.w3.org/2000/svg">
<path d="M5 6.58337C4.58579 6.58337 4.25 6.91916 4.25 7.33337C4.25 7.74759 4.58579 8.08337 5 8.08337V6.58337ZM17 8.08337C17.4142 8.08337 17.75 7.74759 17.75 7.33337C17.75 6.91916 17.4142 6.58337 17 6.58337V8.08337ZM1 0.583374C0.585786 0.583374 0.25 0.91916 0.25 1.33337C0.25 1.74759 0.585786 2.08337 1 2.08337V0.583374ZM17 2.08337C17.4142 2.08337 17.75 1.74759 17.75 1.33337C17.75 0.91916 17.4142 0.583374 17 0.583374V2.08337ZM3 12.5834C2.58579 12.5834 2.25 12.9192 2.25 13.3334C2.25 13.7476 2.58579 14.0834 3 14.0834V12.5834ZM17 14.0834C17.4142 14.0834 17.75 13.7476 17.75 13.3334C17.75 12.9192 17.4142 12.5834 17 12.5834V14.0834ZM5 8.08337H17V6.58337H5V8.08337ZM1 2.08337H17V0.583374H1V2.08337ZM3 14.0834H17V12.5834H3V14.0834Z" fill="white"/>
</svg>
