<svg width="50" height="41" viewBox="0 0 50 41" fill="none" xmlns="http://www.w3.org/2000/svg">
<path d="M11.0879 6.43842C11.0879 7.13691 10.5216 7.70315 9.82313 7.70315C9.12464 7.70315 8.55839 7.13691 8.55839 6.43842C8.55839 5.73992 9.12464 5.17368 9.82313 5.17368C10.5216 5.17368 11.0879 5.73992 11.0879 6.43842Z" fill="white"/>
<path d="M14.8821 7.70315C15.5806 7.70315 16.1469 7.13691 16.1469 6.43842C16.1469 5.73992 15.5806 5.17368 14.8821 5.17368C14.1836 5.17368 13.6174 5.73992 13.6174 6.43842C13.6174 7.13691 14.1836 7.70315 14.8821 7.70315Z" fill="white"/>
<path d="M21.2058 6.43842C21.2058 7.13691 20.6395 7.70315 19.941 7.70315C19.2425 7.70315 18.6763 7.13691 18.6763 6.43842C18.6763 5.73992 19.2425 5.17368 19.941 5.17368C20.6395 5.17368 21.2058 5.73992 21.2058 6.43842Z" fill="white"/>
<path d="M32.5884 7.70315H40.1768C40.8753 7.70315 41.4416 7.13689 41.4416 6.43842C41.4416 5.73995 40.8753 5.17368 40.1768 5.17368H32.5884C31.8899 5.17368 31.3237 5.73995 31.3237 6.43842C31.3237 7.13689 31.8899 7.70315 32.5884 7.70315Z" fill="white"/>
<path d="M27.6318 17.3228C27.9069 16.6808 28.6505 16.3834 29.2925 16.6586C29.9344 16.9337 30.2319 17.6772 29.9567 18.3192L22.3683 36.0256C22.0932 36.6674 21.3498 36.965 20.7076 36.6898C20.0656 36.4147 19.7682 35.6711 20.0434 35.0291L27.6318 17.3228Z" fill="white"/>
<path d="M16.6216 20.6277C17.1667 20.1913 17.9628 20.2797 18.3992 20.8251C18.8355 21.3707 18.7472 22.1665 18.2016 22.6028L13.1125 26.6742L18.2016 30.7456C18.7472 31.1819 18.8355 31.9778 18.3992 32.5233C17.963 33.0686 17.167 33.1572 16.6216 32.7207L10.2979 27.6618C9.66516 27.1557 9.66558 26.1922 10.2979 25.6866L16.6216 20.6277Z" fill="white"/>
<path d="M39.7022 25.6866L33.3785 20.6277C32.8331 20.1913 32.0371 20.2797 31.6009 20.8252C31.1645 21.3706 31.2529 22.1665 31.7984 22.6028L36.8876 26.6742L31.7984 30.7456C31.2529 31.1819 31.1645 31.9778 31.6009 32.5232C32.0378 33.0692 32.8338 33.1566 33.3785 32.7207L39.7022 27.6617C40.3345 27.1561 40.3349 26.1927 39.7022 25.6866Z" fill="white"/>
<path fill-rule="evenodd" clip-rule="evenodd" d="M5.39216 0.942017C2.41415 0.942017 0 3.35616 0 6.33417V35.1657C0 38.1437 2.41415 40.5579 5.39216 40.5579H44.6078C47.5859 40.5579 50 38.1437 50 35.1657V6.33417C50 3.35617 47.5858 0.942017 44.6078 0.942017H5.39216ZM1.54062 6.33417C1.54062 4.20702 3.26501 2.48263 5.39216 2.48263H44.6078C46.735 2.48263 48.4594 4.20703 48.4594 6.33417V11.3262H1.54062V6.33417ZM1.54062 12.8668H48.4594V35.1657C48.4594 37.2929 46.735 39.0173 44.6078 39.0173H5.39216C3.26501 39.0173 1.54062 37.2929 1.54062 35.1657V12.8668Z" fill="white"/>
</svg>
