<svg width="50" height="51" viewBox="0 0 50 51" fill="none" xmlns="http://www.w3.org/2000/svg">
<path d="M44.2586 2.26265C41.5705 -0.420963 37.2175 -0.420963 34.5294 2.26265L32.094 4.71164L6.16907 30.6252L6.11398 30.6808C6.10063 30.6941 6.10063 30.7083 6.08643 30.7083C6.05888 30.7496 6.01756 30.7905 5.99044 30.8319C5.99044 30.8456 5.97624 30.8456 5.97624 30.8594C5.94869 30.9007 5.93534 30.9283 5.90737 30.9696C5.89402 30.9834 5.89402 30.9967 5.88025 31.0109C5.86647 31.0523 5.8527 31.0798 5.8385 31.1211C5.8385 31.1345 5.82515 31.1345 5.82515 31.1487L0.0731993 48.4471C-0.0955327 48.9395 0.0327381 49.485 0.403346 49.8504C0.663761 50.1074 1.015 50.2512 1.38044 50.2499C1.5298 50.2473 1.67787 50.2241 1.82078 50.181L19.1042 44.4148C19.1175 44.4148 19.1175 44.4148 19.1317 44.4014C19.1752 44.3885 19.217 44.37 19.2553 44.3459C19.266 44.3446 19.2755 44.3399 19.2832 44.3326C19.3241 44.305 19.3792 44.277 19.4206 44.2495C19.4615 44.2224 19.5032 44.181 19.5445 44.1535C19.5583 44.1393 19.5716 44.1393 19.5716 44.1259C19.5858 44.1121 19.6134 44.0988 19.6272 44.0708L47.9875 15.7078C50.6708 13.0195 50.6708 8.66603 47.9875 5.97812L44.2586 2.26265ZM18.6638 41.1806L9.08659 31.6028L33.0573 7.62987L42.6345 17.2076L18.6638 41.1806ZM7.73759 34.1487L16.1045 42.5159L3.54081 46.6993L7.73759 34.1487ZM46.0475 13.781L44.5887 15.2537L35.011 5.67506L36.484 4.20282C38.0951 2.59282 40.7066 2.59282 42.3182 4.20282L46.0608 7.94584C47.6599 9.56444 47.6539 12.1701 46.0475 13.781Z" fill="white"/>
</svg>
