<svg width="215" height="117" viewBox="0 0 215 117" fill="none" xmlns="http://www.w3.org/2000/svg">
<g filter="url(#filter0_i)">
<path d="M125.25 115.284C66.7956 120.038 1 101.11 1 58.5C1 15.8897 66.7955 -3.03839 125.25 1.7158C171.14 5.44813 212.546 25.5759 214 58.5C212.548 91.4258 171.142 111.552 125.25 115.284Z" fill="url(#paint0_radial)"/>
<path d="M189.15 71.0781C168.461 108.389 56.025 104.196 56.025 58.5C56.025 12.8032 168.463 8.60942 189.15 45.9219C194.475 54.9062 195.363 57.6016 206.9 57.6016H213.95L206.9 59.3984C195.363 59.3984 194.475 62.0937 189.15 71.0781Z" fill="url(#paint1_radial)"/>
<path d="M143 56.7031C143 66.627 135.053 74.6719 125.25 74.6719C115.447 74.6719 107.5 66.627 107.5 56.7031C107.5 46.7793 115.447 38.7344 125.25 38.7344C135.053 38.7344 143 46.7793 143 56.7031Z" fill="url(#paint2_radial)"/>
</g>
<path d="M206.9 59.3984C195.363 59.3984 194.475 62.0937 189.15 71.0781C168.461 108.389 56.025 104.196 56.025 58.5C56.025 12.8032 168.463 8.60942 189.15 45.9219C194.475 54.9062 195.363 57.6016 206.9 57.6016H213.95L206.9 59.3984ZM206.9 59.3984L210.094 59.3394H214M1 58.5C1 101.11 66.7956 120.038 125.25 115.284C171.142 111.552 212.548 91.4258 214 58.5C212.546 25.5759 171.14 5.44813 125.25 1.7158C66.7955 -3.03839 1 15.8897 1 58.5ZM143 56.7031C143 66.627 135.053 74.6719 125.25 74.6719C115.447 74.6719 107.5 66.627 107.5 56.7031C107.5 46.7793 115.447 38.7344 125.25 38.7344C135.053 38.7344 143 46.7793 143 56.7031Z" stroke="url(#paint3_radial)" stroke-width="1.5" stroke-linejoin="round"/>
<defs>
<filter id="filter0_i" x="0.25" y="0.25" width="218.5" height="120.5" filterUnits="userSpaceOnUse" color-interpolation-filters="sRGB">
<feFlood flood-opacity="0" result="BackgroundImageFix"/>
<feBlend mode="normal" in="SourceGraphic" in2="BackgroundImageFix" result="shape"/>
<feColorMatrix in="SourceAlpha" type="matrix" values="0 0 0 0 0 0 0 0 0 0 0 0 0 0 0 0 0 0 127 0" result="hardAlpha"/>
<feOffset dx="4" dy="4"/>
<feGaussianBlur stdDeviation="2"/>
<feComposite in2="hardAlpha" operator="arithmetic" k2="-1" k3="1"/>
<feColorMatrix type="matrix" values="0 0 0 0 0 0 0 0 0 0 0 0 0 0 0 0 0 0 0.67 0"/>
<feBlend mode="normal" in2="shape" result="effect1_innerShadow"/>
</filter>
<radialGradient id="paint0_radial" cx="0" cy="0" r="1" gradientUnits="userSpaceOnUse" gradientTransform="translate(124.952 56.689) rotate(90) scale(17.6575 17.4517)">
<stop stop-color="#F9DCDC"/>
<stop offset="0.9999" stop-color="#F9DCDC"/>
<stop offset="1" stop-color="white" stop-opacity="0"/>
</radialGradient>
<radialGradient id="paint1_radial" cx="0" cy="0" r="1" gradientUnits="userSpaceOnUse" gradientTransform="translate(124.952 56.689) rotate(90) scale(17.6575 17.4517)">
<stop stop-color="#F9DCDC"/>
<stop offset="0.9999" stop-color="#F9DCDC"/>
<stop offset="1" stop-color="white" stop-opacity="0"/>
</radialGradient>
<radialGradient id="paint2_radial" cx="0" cy="0" r="1" gradientUnits="userSpaceOnUse" gradientTransform="translate(124.952 56.689) rotate(90) scale(17.6575 17.4517)">
<stop stop-color="#F9DCDC"/>
<stop offset="0.9999" stop-color="#F9DCDC"/>
<stop offset="1" stop-color="white" stop-opacity="0"/>
</radialGradient>
<radialGradient id="paint3_radial" cx="0" cy="0" r="1" gradientUnits="userSpaceOnUse" gradientTransform="translate(132.35 58.5) rotate(180) scale(136.675 73.7917)">
<stop offset="0.424799" stop-color="#F9DCDC"/>
<stop offset="0.829677" stop-color="#FDB7B7" stop-opacity="0.841406"/>
<stop offset="1"/>
</radialGradient>
</defs>
</svg>
