<svg width="454" height="246" viewBox="0 0 454 246" fill="none" xmlns="http://www.w3.org/2000/svg">
<g filter="url(#filter0_i)">
<path d="M264.5 242.901C141.005 252.943 2 212.962 2 122.956C2 32.9514 141.005 -7.03011 264.5 3.01209C361.451 10.8958 448.928 53.4113 452 122.956C448.932 192.505 361.454 235.017 264.5 242.901Z" fill="url(#paint0_radial)"/>
<path d="M302 119.161C302 140.123 285.211 157.116 264.5 157.116C243.789 157.116 227 140.123 227 119.161C227 98.1989 243.789 81.2058 264.5 81.2058C285.211 81.2058 302 98.1989 302 119.161Z" fill="url(#paint1_radial)"/>
</g>
<path d="M452 122.956C448.932 192.505 361.454 235.017 264.5 242.901C141.005 252.943 2 212.962 2 122.956C2 32.9514 141.005 -7.03011 264.5 3.01209C361.451 10.8958 448.928 53.4113 452 122.956ZM452 122.956H437M437 122.956C412.625 122.956 410.75 115.365 399.5 96.3878C355.795 17.5734 118.25 26.4318 118.25 122.956C118.25 219.48 355.792 228.337 399.5 149.525C410.75 130.547 412.625 122.956 437 122.956ZM302 119.161C302 140.123 285.211 157.116 264.5 157.116C243.789 157.116 227 140.123 227 119.161C227 98.1989 243.789 81.2058 264.5 81.2058C285.211 81.2058 302 98.1989 302 119.161Z" stroke="url(#paint2_radial)" stroke-width="3" stroke-linejoin="round"/>
<defs>
<filter id="filter0_i" x="0.5" y="0.000183105" width="457" height="249.912" filterUnits="userSpaceOnUse" color-interpolation-filters="sRGB">
<feFlood flood-opacity="0" result="BackgroundImageFix"/>
<feBlend mode="normal" in="SourceGraphic" in2="BackgroundImageFix" result="shape"/>
<feColorMatrix in="SourceAlpha" type="matrix" values="0 0 0 0 0 0 0 0 0 0 0 0 0 0 0 0 0 0 127 0" result="hardAlpha"/>
<feOffset dx="4" dy="4"/>
<feGaussianBlur stdDeviation="2"/>
<feComposite in2="hardAlpha" operator="arithmetic" k2="-1" k3="1"/>
<feColorMatrix type="matrix" values="0 0 0 0 0 0 0 0 0 0 0 0 0 0 0 0 0 0 0.67 0"/>
<feBlend mode="normal" in2="shape" result="effect1_innerShadow"/>
</filter>
<radialGradient id="paint0_radial" cx="0" cy="0" r="1" gradientUnits="userSpaceOnUse" gradientTransform="translate(263.87 119.131) rotate(90) scale(37.2976 36.8698)">
<stop stop-color="#F9DCDC"/>
<stop offset="0.9999" stop-color="#F9DCDC"/>
<stop offset="1" stop-color="white" stop-opacity="0"/>
</radialGradient>
<radialGradient id="paint1_radial" cx="0" cy="0" r="1" gradientUnits="userSpaceOnUse" gradientTransform="translate(263.87 119.131) rotate(90) scale(37.2976 36.8698)">
<stop stop-color="#F9DCDC"/>
<stop offset="0.9999" stop-color="#F9DCDC"/>
<stop offset="1" stop-color="white" stop-opacity="0"/>
</radialGradient>
<radialGradient id="paint2_radial" cx="0" cy="0" r="1" gradientUnits="userSpaceOnUse" gradientTransform="translate(279.5 122.956) rotate(180) scale(288.75 155.869)">
<stop offset="0.424799" stop-color="#F9DCDC"/>
<stop offset="0.829677" stop-color="#FDB7B7" stop-opacity="0.841406"/>
<stop offset="1"/>
</radialGradient>
</defs>
</svg>
