<svg width="645" height="399" viewBox="0 0 645 399" fill="none" xmlns="http://www.w3.org/2000/svg">
<g filter="url(#filter0_dd)">
<rect x="25" y="15" width="595" height="369" rx="5" fill="url(#paint0_linear)"/>
<rect x="26" y="16" width="593" height="367" rx="4" stroke="url(#paint1_linear)" stroke-width="2" stroke-miterlimit="1.41421" stroke-linejoin="round"/>
</g>
<g filter="url(#filter1_i)">
<path d="M359.5 319.901C236.005 329.943 97 289.962 97 199.956C97 109.951 236.005 69.9699 359.5 80.0121C456.451 87.8958 543.928 130.411 547 199.956C543.932 269.505 456.454 312.017 359.5 319.901Z" fill="url(#paint2_radial)"/>
<path d="M397 196.161C397 217.123 380.211 234.116 359.5 234.116C338.789 234.116 322 217.123 322 196.161C322 175.199 338.789 158.206 359.5 158.206C380.211 158.206 397 175.199 397 196.161Z" fill="url(#paint3_radial)"/>
</g>
<path d="M547 199.956C543.932 269.505 456.454 312.017 359.5 319.901C236.005 329.943 97 289.962 97 199.956C97 109.951 236.005 69.9699 359.5 80.0121C456.451 87.8958 543.928 130.411 547 199.956ZM547 199.956H532M532 199.956C507.625 199.956 505.75 192.365 494.5 173.388C450.795 94.5734 213.25 103.432 213.25 199.956C213.25 296.48 450.792 305.337 494.5 226.525C505.75 207.547 507.625 199.956 532 199.956ZM397 196.161C397 217.123 380.211 234.116 359.5 234.116C338.789 234.116 322 217.123 322 196.161C322 175.199 338.789 158.206 359.5 158.206C380.211 158.206 397 175.199 397 196.161Z" stroke="url(#paint4_radial)" stroke-width="3" stroke-linejoin="round"/>
<defs>
<filter id="filter0_dd" x="0" y="0" width="645" height="399" filterUnits="userSpaceOnUse" color-interpolation-filters="sRGB">
<feFlood flood-opacity="0" result="BackgroundImageFix"/>
<feColorMatrix in="SourceAlpha" type="matrix" values="0 0 0 0 0 0 0 0 0 0 0 0 0 0 0 0 0 0 127 0"/>
<feOffset dx="-10"/>
<feGaussianBlur stdDeviation="7.5"/>
<feColorMatrix type="matrix" values="0 0 0 0 0.0431373 0 0 0 0 0.0431373 0 0 0 0 0.0431373 0 0 0 1 0"/>
<feBlend mode="normal" in2="BackgroundImageFix" result="effect1_dropShadow"/>
<feColorMatrix in="SourceAlpha" type="matrix" values="0 0 0 0 0 0 0 0 0 0 0 0 0 0 0 0 0 0 127 0"/>
<feOffset dx="10"/>
<feGaussianBlur stdDeviation="7.5"/>
<feColorMatrix type="matrix" values="0 0 0 0 0.137255 0 0 0 0 0.137255 0 0 0 0 0.137255 0 0 0 1 0"/>
<feBlend mode="normal" in2="effect1_dropShadow" result="effect2_dropShadow"/>
<feBlend mode="normal" in="SourceGraphic" in2="effect2_dropShadow" result="shape"/>
</filter>
<filter id="filter1_i" x="95.5" y="77.0002" width="457" height="249.912" filterUnits="userSpaceOnUse" color-interpolation-filters="sRGB">
<feFlood flood-opacity="0" result="BackgroundImageFix"/>
<feBlend mode="normal" in="SourceGraphic" in2="BackgroundImageFix" result="shape"/>
<feColorMatrix in="SourceAlpha" type="matrix" values="0 0 0 0 0 0 0 0 0 0 0 0 0 0 0 0 0 0 127 0" result="hardAlpha"/>
<feOffset dx="4" dy="4"/>
<feGaussianBlur stdDeviation="2"/>
<feComposite in2="hardAlpha" operator="arithmetic" k2="-1" k3="1"/>
<feColorMatrix type="matrix" values="0 0 0 0 0 0 0 0 0 0 0 0 0 0 0 0 0 0 0.67 0"/>
<feBlend mode="normal" in2="shape" result="effect1_innerShadow"/>
</filter>
<linearGradient id="paint0_linear" x1="620" y1="199.5" x2="25" y2="199.5" gradientUnits="userSpaceOnUse">
<stop stop-color="#1B1B1B"/>
<stop offset="1" stop-color="#131313"/>
<stop offset="1" stop-color="#131313"/>
</linearGradient>
<linearGradient id="paint1_linear" x1="620" y1="199.5" x2="25" y2="199.5" gradientUnits="userSpaceOnUse">
<stop stop-color="#F9DCDC"/>
<stop offset="0.364583" stop-color="#FDB7B7" stop-opacity="0.841406"/>
<stop offset="1" stop-color="#111111"/>
</linearGradient>
<radialGradient id="paint2_radial" cx="0" cy="0" r="1" gradientUnits="userSpaceOnUse" gradientTransform="translate(358.87 196.131) rotate(90) scale(37.2976 36.8698)">
<stop stop-color="#F9DCDC"/>
<stop offset="0.9999" stop-color="#F9DCDC"/>
<stop offset="1" stop-color="white" stop-opacity="0"/>
</radialGradient>
<radialGradient id="paint3_radial" cx="0" cy="0" r="1" gradientUnits="userSpaceOnUse" gradientTransform="translate(358.87 196.131) rotate(90) scale(37.2976 36.8698)">
<stop stop-color="#F9DCDC"/>
<stop offset="0.9999" stop-color="#F9DCDC"/>
<stop offset="1" stop-color="white" stop-opacity="0"/>
</radialGradient>
<radialGradient id="paint4_radial" cx="0" cy="0" r="1" gradientUnits="userSpaceOnUse" gradientTransform="translate(374.5 199.956) rotate(180) scale(288.75 155.869)">
<stop offset="0.424799" stop-color="#F9DCDC"/>
<stop offset="0.829677" stop-color="#FDB7B7" stop-opacity="0.841406"/>
<stop offset="1"/>
</radialGradient>
</defs>
</svg>
